# xmcd CD database file
#
# Track frame offsets:
#	150
#	16647
#	36817
#	56725
#	76302
#	90347
#	109644
#	122339
#	136932
#	157621
#	174375
#	190336
#	210806
#	229247
#	250167
#	262804
#
# Disc length: 3991 seconds
#
# Revision: 2
# Processed by: cddbd v1.4b41PL1 Copyright (c) Steve Scherf et al.
# Submitted via: Feurio! 1.60 - http://www.feurio.com
#
DISCID=b10f9510,d10f9510
DTITLE=Project Deer - When The Sun Goes Down For A While
DYEAR=1900
DGENRE=
TTITLE0=Recalling (Radio Edit)
TTITLE1=Hurt You
TTITLE2=When The Sun Goes Down For A While
TTITLE3=Missisippi
TTITLE4=Back Home
TTITLE5=And Story Goes On
TTITLE6=Tabledance
TTITLE7=Man At The Crossroads
TTITLE8=No Need To Pity Me
TTITLE9=Let Me Be
TTITLE10=Now It's Time
TTITLE11=Skyline
TTITLE12=Over The Hill And Far Away
TTITLE13=Hero
TTITLE14=Cat On The Roof
TTITLE15=Recalling (Long Version)
EXTD=
EXTT0=
EXTT1=
EXTT2=
EXTT3=
EXTT4=
EXTT5=
EXTT6=
EXTT7=
EXTT8=
EXTT9=
EXTT10=
EXTT11=
EXTT12=
EXTT13=
EXTT14=
EXTT15=
PLAYORDER=
